<svg width="336" height="246" viewBox="0 0 336 246" fill="none" xmlns="http://www.w3.org/2000/svg">
<g clip-path="url(#clip0)">
<path d="M204.363 116.411C203.32 116.409 202.318 116.011 201.557 115.297C200.797 114.583 200.336 113.606 200.268 112.565L199.658 103.24C199.587 102.151 199.95 101.078 200.669 100.257C201.388 99.4367 202.403 98.9356 203.491 98.8642L276.452 94.0799C278.773 93.9294 281.06 94.7081 282.808 96.2448C284.557 97.7816 285.624 99.9506 285.776 102.275C285.928 104.6 285.152 106.89 283.619 108.642C282.085 110.393 279.92 111.464 277.599 111.618L204.638 116.402C204.546 116.408 204.454 116.411 204.363 116.411Z" fill="#F9A826"/>
<path d="M218.75 117.613C217.687 117.612 216.666 117.198 215.901 116.46C215.136 115.721 214.685 114.715 214.644 113.651L214.124 99.7237C214.104 99.1836 214.191 98.6449 214.378 98.1382C214.566 97.6316 214.852 97.1669 215.219 96.7708C215.586 96.3746 216.028 96.0548 216.518 95.8295C217.009 95.6042 217.539 95.4779 218.078 95.4578L278.076 93.2125C279.165 93.1718 280.226 93.566 281.025 94.3084C281.824 95.0508 282.296 96.0807 282.337 97.1714L282.857 111.099C282.877 111.639 282.791 112.178 282.603 112.684C282.415 113.191 282.129 113.656 281.762 114.052C281.395 114.448 280.954 114.768 280.463 114.993C279.972 115.218 279.442 115.345 278.903 115.365L218.905 117.61C218.853 117.612 218.801 117.613 218.75 117.613Z" fill="#7270EB"/>
<path d="M289.057 246H279.725C278.635 245.999 277.59 245.565 276.82 244.793C276.049 244.022 275.616 242.976 275.615 241.885V164.001C275.616 162.91 276.049 161.864 276.82 161.092C277.59 160.321 278.635 159.887 279.725 159.885H289.057C290.147 159.887 291.192 160.321 291.962 161.092C292.733 161.864 293.166 162.91 293.167 164.001V241.885C293.166 242.976 292.733 244.022 291.962 244.793C291.192 245.565 290.147 245.999 289.057 246Z" fill="#A92283"/>
<path d="M265.625 246H256.292C255.203 245.999 254.158 245.565 253.388 244.793C252.617 244.022 252.184 242.976 252.182 241.885V164.001C252.184 162.91 252.617 161.864 253.388 161.092C254.158 160.321 255.203 159.887 256.292 159.885H265.625C266.715 159.887 267.76 160.321 268.53 161.092C269.301 161.864 269.734 162.91 269.735 164.001V241.885C269.734 242.976 269.301 244.022 268.53 244.793C267.76 245.565 266.715 245.999 265.625 246Z" fill="#A92283"/>
<path d="M274.883 78.6048C292.693 78.6048 307.131 64.1482 307.131 46.3152C307.131 28.4821 292.693 14.0255 274.883 14.0255C257.073 14.0255 242.635 28.4821 242.635 46.3152C242.635 64.1482 257.073 78.6048 274.883 78.6048Z" fill="#F9A826"/>
<path d="M257.427 57.34C256.39 56.9987 255.438 56.439 254.634 55.6985C254.102 55.1697 253.692 54.5309 253.432 53.8267C253.173 53.1224 253.07 52.3699 253.131 51.6217C253.165 51.0887 253.321 50.5707 253.588 50.1081C253.855 49.6456 254.225 49.2512 254.669 48.9556C255.822 48.2149 257.365 48.2127 258.935 48.9056L258.876 36.3002L260.14 36.2942L260.21 51.1132L259.236 50.4995C258.106 49.789 256.492 49.2889 255.352 50.0215C255.07 50.215 254.837 50.471 254.67 50.7695C254.503 51.0681 254.407 51.4012 254.39 51.7429C254.347 52.3002 254.425 52.8601 254.618 53.3847C254.811 53.9092 255.114 54.386 255.508 54.7825C256.904 56.1181 258.942 56.5358 261.265 56.9091L261.064 58.1592C259.83 57.9954 258.613 57.7213 257.427 57.34Z" fill="#2F2E41"/>
<path d="M245.84 35.6647L245.675 36.9199L252.427 37.8129L252.593 36.5576L245.84 35.6647Z" fill="#2F2E41"/>
<path d="M267.153 38.4811L266.988 39.7363L273.74 40.6292L273.906 39.374L267.153 38.4811Z" fill="#2F2E41"/>
<path d="M247.431 184.897H247.431C246.006 184.895 244.64 184.328 243.632 183.319C242.625 182.31 242.058 180.942 242.057 179.515C242.057 179.515 250.625 132.965 255.521 105.681C256.473 100.375 259.257 95.5737 263.386 92.1153C267.516 88.657 272.728 86.762 278.111 86.7618H278.111C285.822 86.7618 293.217 89.8289 298.669 95.2883C304.122 100.748 307.185 108.152 307.185 115.873V125.066C307.185 140.934 300.889 156.153 289.683 167.373C278.477 178.593 263.279 184.897 247.431 184.897Z" fill="#7270EB"/>
<path d="M288.117 180.237C287.786 180.959 287.254 181.57 286.585 181.997C285.915 182.424 285.137 182.647 284.343 182.641L275.011 182.56C274.471 182.555 273.938 182.444 273.441 182.233C272.944 182.022 272.494 181.715 272.115 181.33C271.737 180.944 271.438 180.488 271.236 179.987C271.034 179.486 270.932 178.95 270.937 178.409L271.571 105.2C271.58 104.046 271.817 102.905 272.267 101.842C272.717 100.779 273.371 99.8152 274.193 99.0058C275.015 98.1964 275.989 97.5571 277.058 97.1244C278.127 96.6917 279.27 96.4742 280.423 96.4842C281.576 96.4942 282.715 96.7316 283.777 97.1827C284.838 97.6339 285.8 98.29 286.608 99.1136C287.416 99.9371 288.054 100.912 288.485 101.983C288.917 103.053 289.133 104.198 289.123 105.353L288.489 178.562C288.485 179.14 288.358 179.711 288.117 180.237Z" fill="#F9A826"/>
<g filter="url(#filter0_d)">
<path d="M292.24 160.693C291.909 161.416 291.377 162.027 290.707 162.453C290.038 162.88 289.26 163.103 288.466 163.097L272.526 162.959C271.436 162.948 270.396 162.505 269.632 161.727C268.868 160.949 268.444 159.899 268.452 158.808L268.973 98.693C268.977 98.1526 269.088 97.6183 269.299 97.1208C269.51 96.6233 269.816 96.1723 270.201 95.7935C270.586 95.4146 271.042 95.1154 271.542 94.913C272.043 94.7105 272.578 94.6087 273.118 94.6134L289.058 94.7518C289.598 94.7564 290.131 94.8675 290.628 95.0786C291.125 95.2898 291.575 95.5968 291.954 95.9823C292.332 96.3677 292.631 96.824 292.833 97.3251C293.035 97.8262 293.137 98.3623 293.132 98.9027L292.612 159.018C292.607 159.596 292.48 160.167 292.24 160.693Z" fill="#7270EB"/>
<path d="M269.473 98.6973L269.473 98.6973L268.952 158.812C268.952 158.812 268.952 158.812 268.952 158.812C268.945 159.771 269.318 160.693 269.989 161.377C270.659 162.06 271.574 162.449 272.53 162.459M269.473 98.6973L272.526 162.959L272.531 162.459M269.473 98.6973C269.477 98.2224 269.574 97.753 269.759 97.3159C269.945 96.8788 270.214 96.4826 270.552 96.1498C270.89 95.8171 271.291 95.5543 271.73 95.3765C272.17 95.1986 272.64 95.1093 273.114 95.1134L273.114 95.1134L289.054 95.2517L289.054 95.2517C289.528 95.2558 289.996 95.3534 290.433 95.5388C290.869 95.7242 291.265 95.9939 291.597 96.3325C291.929 96.6711 292.192 97.072 292.369 97.5122C292.547 97.9524 292.636 98.4235 292.632 98.8983V98.8983L292.112 159.013L292.112 159.014C292.108 159.522 291.996 160.023 291.785 160.485C291.494 161.12 291.027 161.657 290.439 162.032C289.851 162.406 289.167 162.603 288.471 162.597M269.473 98.6973L288.471 162.597M272.53 162.459C272.531 162.459 272.531 162.459 272.531 162.459M272.53 162.459L272.531 162.459M272.53 162.459L288.47 162.597M272.531 162.459L288.47 162.597M288.47 162.597H288.471M288.47 162.597H288.471" stroke="#6360ED"/>
</g>
<path d="M252.489 6.07967C259.845 2.61516 268.926 3.55296 275.437 8.3277C275.419 8.42798 275.402 8.52858 275.387 8.62948C272.17 6.22909 268.344 4.74764 264.318 4.37096C260.197 3.97121 255.579 4.7587 251.73 6.77971C247.869 8.80701 244.719 12.1158 243.73 16.7624C242.688 21.6525 245.664 25.7118 249.712 27.6844C254.444 29.9903 259.878 29.259 264.575 28.4719V28.4725L265.742 28.2741C265.79 28.266 265.818 28.2703 265.831 28.2736C265.846 28.2772 265.861 28.2838 265.878 28.2967C265.919 28.3269 265.965 28.3883 265.987 28.4671C265.99 28.4772 265.992 28.4864 265.993 28.4947C259.705 29.563 253.194 30.4742 247.992 27.0178C244.214 24.508 242.424 20.2204 243.676 15.8688C244.916 11.5626 248.403 8.00451 252.489 6.07967ZM300.433 75.1763C300.422 75.1579 300.416 75.1443 300.412 75.1353C300.422 75.1214 300.444 75.0949 300.489 75.0684C300.558 75.0285 300.616 75.0264 300.636 75.0299C300.643 75.0311 300.646 75.0325 300.648 75.0343C300.651 75.0357 300.669 75.0482 300.695 75.0907L300.695 75.0907L300.702 75.1017C301.33 76.0815 302.151 76.9231 303.114 77.5752C304.077 78.2273 305.163 78.6762 306.306 78.8946C307.448 79.1129 308.623 79.0961 309.758 78.8452C310.894 78.5942 311.967 78.1144 312.911 77.435L312.935 77.4177L312.958 77.399C314.217 76.375 315.168 75.0223 315.707 73.4908C316.245 71.9592 316.35 70.3084 316.01 68.7209L316.003 68.6905L315.995 68.6605C315.532 67.0109 314.607 65.5285 313.328 64.3896C312.049 63.2506 310.47 62.5028 308.779 62.2352L308.766 62.2331L308.753 62.2314C306.986 62 305.189 62.2517 303.553 62.9598C301.918 63.6679 300.504 64.8058 299.462 66.2529L299.458 66.259C295.901 71.2777 297.915 78.3165 302.049 82.0159C307.338 86.7485 315.478 85.7856 320.923 82.5812C327.046 78.9769 330.687 72.3771 332.634 65.9694L332.636 65.9654C334.721 59.0004 335.27 51.6648 334.246 44.4663C332.805 34.2437 328.285 24.704 321.289 17.1201C314.292 9.53586 305.152 4.26841 295.087 2.02091L295.086 2.02055C291.464 1.21827 287.11 0.610689 283.287 2.23718C280.941 3.23527 278.78 5.20816 277.928 7.74934C277.853 7.68516 277.777 7.62152 277.701 7.55839C277.913 6.94421 278.203 6.35601 278.566 5.80882L278.567 5.807C280.706 2.56602 283.99 1.2585 287.698 1.03511C291.431 0.810139 295.492 1.69803 298.954 2.75977C305.895 4.91053 312.308 8.49793 317.776 13.2895C323.523 18.3774 328.05 24.6978 331.021 31.7802C333.992 38.8634 335.329 46.5263 334.933 54.1985C334.542 61.7557 332.606 69.5849 328.343 75.7826C324.244 81.7417 317.681 85.9263 310.431 85.5122L310.42 85.5116L310.41 85.5112C307.117 85.3895 303.972 84.1106 301.527 81.8988C299.424 79.8714 298.031 77.2177 297.556 74.3329L297.554 74.3213L297.551 74.3097C297.024 71.5181 297.595 68.6306 299.144 66.2513C300.1 64.8884 301.37 63.7777 302.848 63.0144C304.327 62.2507 305.968 61.8575 307.631 61.8686C309.221 61.9221 310.771 62.3794 312.136 63.1978C313.5 64.0157 314.635 65.1675 315.433 66.545C316.152 67.8876 316.508 69.3961 316.463 70.9195C316.417 72.448 315.971 73.9375 315.168 75.2381L315.163 75.2474L315.157 75.2569C314.412 76.5251 313.344 77.572 312.063 78.2907C310.782 79.009 309.333 79.3735 307.866 79.347C306.379 79.3166 304.923 78.9197 303.625 78.1911C302.33 77.4638 301.234 76.4284 300.433 75.1763Z" fill="#2E2A2A" stroke="#605959" stroke-width="2"/>
<path d="M194.665 166.853H11.0426C8.11492 166.85 5.30813 165.684 3.23798 163.611C1.16782 161.538 0.00334016 158.728 0 155.796V45.8597C0.00334016 42.9283 1.16782 40.1179 3.23798 38.045C5.30813 35.9722 8.11492 34.8062 11.0426 34.8029H194.665C197.592 34.8062 200.399 35.9722 202.469 38.045C204.539 40.1179 205.704 42.9283 205.707 45.8597V155.796C205.704 158.728 204.539 161.538 202.469 163.611C200.399 165.684 197.592 166.85 194.665 166.853ZM11.0426 36.6983C8.6168 36.7011 6.2912 37.6672 4.57593 39.3847C2.86066 41.1022 1.8958 43.4308 1.89301 45.8597V155.796C1.8958 158.225 2.86066 160.554 4.57593 162.271C6.2912 163.989 8.6168 164.955 11.0426 164.958H194.665C197.09 164.955 199.416 163.989 201.131 162.271C202.846 160.554 203.811 158.225 203.814 155.796V45.8597C203.811 43.4308 202.846 41.1022 201.131 39.3847C199.416 37.6672 197.09 36.7011 194.665 36.6983H11.0426Z" fill="#3F3D56"/>
<path d="M35.6517 60.7075C34.0917 60.7075 32.5667 60.2443 31.2696 59.3765C29.9725 58.5086 28.9616 57.2752 28.3646 55.8321C27.7676 54.3889 27.6114 52.801 27.9157 51.2689C28.2201 49.7369 28.9713 48.3297 30.0744 47.2252C31.1775 46.1207 32.5829 45.3685 34.1129 45.0637C35.643 44.759 37.2289 44.9154 38.6701 45.5132C40.1114 46.1109 41.3433 47.1232 42.21 48.422C43.0767 49.7208 43.5393 51.2477 43.5393 52.8097C43.5369 54.9036 42.7051 56.9111 41.2265 58.3917C39.7478 59.8723 37.7429 60.7051 35.6517 60.7075ZM35.6517 46.8074C34.4661 46.8074 33.3071 47.1595 32.3213 47.819C31.3355 48.4785 30.5672 49.416 30.1135 50.5127C29.6598 51.6095 29.5411 52.8164 29.7724 53.9807C30.0037 55.145 30.5746 56.2146 31.4129 57.054C32.2513 57.8934 33.3194 58.4651 34.4822 58.6967C35.6451 58.9283 36.8504 58.8094 37.9457 58.3551C39.0411 57.9008 39.9773 57.1315 40.636 56.1444C41.2947 55.1573 41.6462 53.9969 41.6462 52.8097C41.6444 51.2184 41.0123 49.6927 39.8885 48.5675C38.7647 47.4422 37.241 46.8092 35.6517 46.8074Z" fill="#3F3D56"/>
<path d="M168.793 60.7075C167.233 60.7075 165.708 60.2443 164.411 59.3765C163.114 58.5086 162.103 57.2752 161.506 55.8321C160.909 54.3889 160.753 52.801 161.057 51.2689C161.362 49.7369 162.113 48.3297 163.216 47.2252C164.319 46.1207 165.725 45.3685 167.255 45.0637C168.785 44.759 170.371 44.9154 171.812 45.5132C173.253 46.1109 174.485 47.1232 175.352 48.422C176.218 49.7208 176.681 51.2477 176.681 52.8097C176.679 54.9036 175.847 56.9111 174.368 58.3917C172.889 59.8723 170.885 60.7051 168.793 60.7075ZM168.793 46.8074C167.608 46.8074 166.449 47.1595 165.463 47.819C164.477 48.4785 163.709 49.416 163.255 50.5127C162.802 51.6095 162.683 52.8164 162.914 53.9807C163.145 55.145 163.716 56.2146 164.555 57.054C165.393 57.8934 166.461 58.4651 167.624 58.6967C168.787 58.9283 169.992 58.8094 171.087 58.3551C172.183 57.9008 173.119 57.1315 173.778 56.1444C174.436 55.1573 174.788 53.9969 174.788 52.8097C174.786 51.2184 174.154 49.6927 173.03 48.5675C171.906 47.4422 170.383 46.8092 168.793 46.8074Z" fill="#3F3D56"/>
<path d="M54.2663 108.726H20.1921C18.7702 108.724 17.4069 108.158 16.4014 107.151C15.3959 106.144 14.8303 104.779 14.8286 103.355V83.1371C14.8303 81.7132 15.3959 80.3482 16.4014 79.3414C17.4069 78.3347 18.7702 77.7683 20.1921 77.7666H54.2663C55.6883 77.7683 57.0515 78.3347 58.057 79.3414C59.0625 80.3482 59.6282 81.7133 59.6298 83.1371V103.355C59.6282 104.779 59.0625 106.144 58.057 107.151C57.0515 108.158 55.6883 108.724 54.2663 108.726Z" fill="#E6E6E6"/>
<path d="M119.891 108.726H85.8164C84.3944 108.724 83.0312 108.158 82.0257 107.151C81.0202 106.144 80.4546 104.779 80.4529 103.355V83.1371C80.4546 81.7132 81.0202 80.3482 82.0257 79.3414C83.0312 78.3347 84.3944 77.7683 85.8164 77.7666H119.891C121.313 77.7683 122.676 78.3347 123.681 79.3414C124.687 80.3482 125.252 81.7133 125.254 83.1371V103.355C125.252 104.779 124.687 106.144 123.681 107.151C122.676 108.158 121.313 108.724 119.891 108.726Z" fill="#E6E6E6"/>
<path d="M151.441 78.3984C150.186 78.3998 148.983 78.8995 148.096 79.7879C147.209 80.6762 146.71 81.8807 146.708 83.1371V103.355C146.71 104.612 147.209 105.816 148.096 106.705C148.983 107.593 150.186 108.093 151.441 108.094H185.515C186.77 108.093 187.973 107.593 188.86 106.705C189.747 105.816 190.246 104.612 190.247 103.355V83.1371C190.246 81.8807 189.747 80.6762 188.86 79.7879C187.973 78.8995 186.77 78.3998 185.515 78.3984H151.441Z" fill="#E6E6E6"/>
<path d="M54.5818 149.162H20.5076C19.0857 149.161 17.7224 148.594 16.7169 147.587C15.7114 146.581 15.1458 145.216 15.1441 143.792V123.574C15.1458 122.15 15.7114 120.785 16.7169 119.778C17.7224 118.771 19.0857 118.205 20.5076 118.203H54.5818C56.0038 118.205 57.3671 118.771 58.3725 119.778C59.378 120.785 59.9437 122.15 59.9454 123.574V143.792C59.9437 145.216 59.378 146.581 58.3725 147.587C57.3671 148.594 56.0038 149.161 54.5818 149.162Z" fill="#E6E6E6"/>
<path d="M120.206 149.162H86.132C84.71 149.161 83.3467 148.594 82.3412 147.587C81.3358 146.581 80.7701 145.216 80.7684 143.792V123.574C80.7701 122.15 81.3358 120.785 82.3412 119.778C83.3467 118.771 84.71 118.205 86.132 118.203H120.206C121.628 118.205 122.991 118.771 123.997 119.778C125.002 120.785 125.568 122.15 125.57 123.574V143.792C125.568 145.216 125.002 146.581 123.997 147.587C122.991 148.594 121.628 149.161 120.206 149.162Z" fill="#E6E6E6"/>
<path d="M185.831 149.162H151.756C150.334 149.161 148.971 148.594 147.966 147.587C146.96 146.581 146.395 145.216 146.393 143.792V123.574C146.395 122.15 146.96 120.785 147.966 119.778C148.971 118.771 150.334 118.205 151.756 118.203H185.831C187.253 118.205 188.616 118.771 189.621 119.778C190.627 120.785 191.192 122.15 191.194 123.574V143.792C191.192 145.216 190.627 146.581 189.621 147.587C188.616 148.594 187.253 149.161 185.831 149.162Z" fill="#E6E6E6"/>
<path d="M35.6517 55.0212C35.0662 55.0205 34.5048 54.7872 34.0908 54.3727C33.6768 53.9581 33.4439 53.3961 33.4432 52.8098V21.2188C33.4432 20.6323 33.6759 20.0698 34.09 19.6551C34.5042 19.2404 35.066 19.0074 35.6517 19.0074C36.2374 19.0074 36.7992 19.2404 37.2133 19.6551C37.6275 20.0698 37.8602 20.6323 37.8602 21.2188V52.8098C37.8595 53.3961 37.6266 53.9581 37.2126 54.3727C36.7985 54.7872 36.2372 55.0205 35.6517 55.0212Z" fill="#3F3D56"/>
<path d="M168.793 55.0212C168.208 55.0205 167.647 54.7872 167.233 54.3727C166.819 53.9581 166.586 53.3961 166.585 52.8098V21.2188C166.585 20.6323 166.818 20.0698 167.232 19.6551C167.646 19.2404 168.208 19.0074 168.793 19.0074C169.379 19.0074 169.941 19.2404 170.355 19.6551C170.769 20.0698 171.002 20.6323 171.002 21.2188V52.8098C171.001 53.3961 170.768 53.9581 170.354 54.3727C169.94 54.7872 169.379 55.0205 168.793 55.0212Z" fill="#3F3D56"/>
<path d="M35.9411 101.442C35.0121 101.443 34.1077 101.142 33.3644 100.584L33.3184 100.55L23.6131 93.1158C22.7053 92.4189 22.1111 91.3895 21.9614 90.2541C21.8116 89.1186 22.1184 87.97 22.8143 87.061C23.5103 86.1521 24.5384 85.5572 25.6724 85.4072C26.8064 85.2572 27.9535 85.5644 28.8613 86.2613L35.1475 91.0881L50.0024 71.6833C50.3468 71.2334 50.7764 70.8558 51.2666 70.5722C51.7568 70.2885 52.298 70.1043 52.8592 70.0301C53.4205 69.9559 53.9909 69.993 54.5378 70.1395C55.0847 70.286 55.5975 70.5389 56.0468 70.8838L56.048 70.8848L55.9558 71.013L56.0505 70.8848C56.957 71.5823 57.55 72.6115 57.6995 73.7464C57.849 74.8813 57.5428 76.0292 56.848 76.9382L39.3754 99.7524C38.9712 100.278 38.4514 100.703 37.8565 100.996C37.2616 101.288 36.6075 101.439 35.9449 101.437L35.9411 101.442Z" fill="#F9A826"/>
<path d="M103.458 141.246C102.529 141.248 101.625 140.947 100.882 140.389L100.836 140.354L91.1304 132.92C90.2226 132.224 89.6285 131.194 89.4787 130.059C89.3289 128.923 89.6357 127.775 90.3317 126.866C91.0276 125.957 92.0557 125.362 93.1897 125.212C94.3237 125.062 95.4708 125.369 96.3786 126.066L102.665 130.893L117.52 111.488C117.864 111.038 118.294 110.661 118.784 110.377C119.274 110.093 119.815 109.909 120.377 109.835C120.938 109.761 121.508 109.798 122.055 109.944C122.602 110.091 123.115 110.344 123.564 110.689L123.565 110.689L123.473 110.818L123.568 110.689C124.474 111.387 125.067 112.416 125.217 113.551C125.366 114.686 125.06 115.834 124.365 116.743L106.893 139.557C106.489 140.083 105.969 140.508 105.374 140.8C104.779 141.092 104.125 141.243 103.462 141.241L103.458 141.246Z" fill="#F9A826"/>
<path d="M167.19 101.442C166.261 101.443 165.356 101.142 164.613 100.584L164.567 100.55L154.862 93.1158C153.954 92.4189 153.36 91.3895 153.21 90.2541C153.06 89.1186 153.367 87.97 154.063 87.061C154.759 86.1521 155.787 85.5572 156.921 85.4072C158.055 85.2572 159.202 85.5644 160.11 86.2613L166.396 91.0881L181.251 71.6833C181.596 71.2334 182.025 70.8558 182.515 70.5722C183.005 70.2885 183.547 70.1043 184.108 70.0301C184.669 69.9559 185.24 69.993 185.786 70.1395C186.333 70.286 186.846 70.5389 187.295 70.8838L187.297 70.8848L187.204 71.013L187.299 70.8848C188.206 71.5823 188.799 72.6115 188.948 73.7464C189.098 74.8813 188.791 76.0292 188.097 76.9382L170.624 99.7524C170.22 100.278 169.7 100.703 169.105 100.996C168.51 101.288 167.856 101.439 167.194 101.437L167.19 101.442Z" fill="#F9A826"/>
</g>
<defs>
<filter id="filter0_d" x="264.452" y="94.6133" width="32.6805" height="76.4842" filterUnits="userSpaceOnUse" color-interpolation-filters="sRGB">
<feFlood flood-opacity="0" result="BackgroundImageFix"/>
<feColorMatrix in="SourceAlpha" type="matrix" values="0 0 0 0 0 0 0 0 0 0 0 0 0 0 0 0 0 0 127 0" result="hardAlpha"/>
<feOffset dy="4"/>
<feGaussianBlur stdDeviation="2"/>
<feComposite in2="hardAlpha" operator="out"/>
<feColorMatrix type="matrix" values="0 0 0 0 0 0 0 0 0 0 0 0 0 0 0 0 0 0 0.25 0"/>
<feBlend mode="normal" in2="BackgroundImageFix" result="effect1_dropShadow"/>
<feBlend mode="normal" in="SourceGraphic" in2="effect1_dropShadow" result="shape"/>
</filter>
<clipPath id="clip0">
<rect width="336" height="246" fill="white"/>
</clipPath>
</defs>
</svg>
