<svg width="37" height="31" viewBox="0 0 37 31" fill="none" xmlns="http://www.w3.org/2000/svg">
<path d="M26.3522 31.0001H21.1452C20.7927 31.0001 20.5073 30.711 20.5073 30.3552V27.6562C19.8937 27.655 18.9891 27.655 18.5032 27.6575C17.9326 27.6588 16.6211 27.6588 15.83 27.6581V30.3552C15.83 30.711 15.5447 31.0001 15.192 31.0001H9.89919C9.63755 31.0001 9.11486 30.8521 8.85381 30.5857C8.63331 30.3703 8.5062 30.0649 8.5062 29.7356V25.6166C5.82613 23.9138 3.80767 21.5359 2.77913 18.8685L0.370059 17.7413C0.144531 17.6354 0 17.4075 0 17.1562V11.6644C0 11.3086 0.285343 11.0196 0.637942 11.0196H2.74797C3.51112 9.07247 4.78139 7.12979 6.18434 5.75824L6.06038 5.56935C4.18581 2.72236 3.75161 1.92576 4.03069 1.32752C4.20389 0.956002 4.63686 0.717351 5.35329 0.598325C6.8335 0.351479 10.2705 0.60145 12.9599 3.21731C14.5198 2.87981 17.0679 2.63673 18.5001 2.63673C19.5541 2.63673 20.5852 2.71607 21.5652 2.87287C21.9128 2.92827 22.1508 3.25825 22.0953 3.61025C22.0411 3.96227 21.7153 4.20411 21.3658 4.14679C20.4519 4.00069 19.4875 3.92641 18.5001 3.92641C17.0572 3.92641 14.3024 4.19967 12.9138 4.5517C12.6945 4.60775 12.4578 4.53972 12.2989 4.37289C9.76836 1.71543 6.3239 1.64618 5.31964 1.91381C5.61556 2.56556 6.53757 3.9667 7.12256 4.85459L7.54991 5.50573C7.72561 5.77528 7.677 6.13482 7.43594 6.34706C5.94511 7.6594 4.51413 9.83195 3.79022 11.881C3.69987 12.138 3.45943 12.3093 3.18967 12.3093H1.27586V16.7438L3.55227 17.8086C3.70674 17.8811 3.82573 18.0127 3.88367 18.1739C4.81692 20.7696 6.80111 23.0882 9.47182 24.7022C9.66433 24.8187 9.78208 25.029 9.78208 25.2557V29.6745C9.82258 29.6858 9.89109 29.7066 9.92659 29.7116L14.5541 29.7104V27.0126C14.5541 26.8414 14.6214 26.677 14.741 26.5561C14.8606 26.4352 15.0232 26.3678 15.192 26.3678H15.1927C15.1927 26.3678 17.6547 26.3709 18.497 26.3678C19.2776 26.3628 21.1465 26.3672 21.1471 26.3678C21.4984 26.3685 21.7832 26.6569 21.7832 27.0126V29.7104H26.3522C26.3615 29.7085 26.3864 29.7009 26.4387 29.6751C26.4443 29.643 26.4518 29.609 26.4618 29.5737V27.0126C26.4618 26.8181 26.549 26.6336 26.6985 26.5114C26.7477 26.4711 31.6045 22.4301 31.7534 16.9636C31.7615 16.677 31.7571 16.3351 31.7534 15.9913C31.7496 15.6424 31.7459 15.2922 31.7528 14.9919C31.5584 12.5435 30.7193 10.3149 29.3256 8.54604C29.1063 8.2677 29.1518 7.86214 29.4271 7.63985C29.7044 7.41756 30.1044 7.46417 30.3236 7.74251C31.7496 9.55295 32.6535 11.7847 32.9576 14.233C34.6266 13.8767 35.6794 12.9056 35.7236 12.2652C35.751 11.8684 35.2084 11.6714 34.8833 11.5895C34.5412 11.5032 34.3331 11.1531 34.4191 10.8074C34.5045 10.4616 34.8502 10.2501 35.1922 10.3382C36.9646 10.786 37.0213 11.9951 36.9964 12.3552C36.8961 13.8005 35.1966 15.1298 33.0249 15.5334C33.0255 15.6783 33.0274 15.8275 33.0292 15.9761C33.0336 16.3376 33.0373 16.6978 33.0292 16.9988C32.8816 22.4025 28.7893 26.3766 27.7376 27.3105V29.6864C27.7376 29.7677 27.7227 29.8477 27.6934 29.9226C27.6822 30.0907 27.6436 30.4478 27.271 30.6796C27.0019 30.8464 26.7054 31.0001 26.3522 31.0001Z" fill="#F9A826"/>
<path d="M10.8636 9.88426C10.8636 10.6261 10.2668 11.2299 9.5329 11.2299C8.79779 11.2299 8.20221 10.6261 8.20221 9.88426C8.20221 9.14116 8.79779 8.53662 9.5329 8.53662C10.2668 8.53662 10.8636 9.14116 10.8636 9.88426Z" fill="#F9A826"/>
<path d="M25.8338 10.9622C22.8441 10.9622 20.4114 8.50376 20.4114 5.4811C20.4114 2.45906 22.8441 0 25.8338 0C28.8235 0 31.2562 2.45906 31.2562 5.4811C31.2562 8.50376 28.8235 10.9622 25.8338 10.9622ZM25.8338 1.28967C23.5474 1.28967 21.6872 3.17003 21.6872 5.4811C21.6872 7.7922 23.5474 9.67256 25.8338 9.67256C28.1202 9.67256 29.9804 7.7922 29.9804 5.4811C29.9804 3.17003 28.1202 1.28967 25.8338 1.28967Z" fill="#F9A826"/>
<path d="M25.8325 8.56744C24.6994 8.56744 23.9075 7.86025 23.9075 6.84827C23.9075 6.52775 24.1649 6.26828 24.4819 6.26828C24.799 6.26828 25.0564 6.52775 25.0564 6.84827C25.0564 7.33382 25.5428 7.40685 25.8325 7.40685C26.1235 7.40685 26.6113 7.33382 26.6113 6.84827C26.6113 6.55044 26.5851 6.50444 25.7977 6.11275L25.3585 5.89236C24.5797 5.50318 23.9075 5.16693 23.9075 4.11591C23.9075 3.09829 24.6994 2.38794 25.8325 2.38794C26.9564 2.38794 27.7414 3.09829 27.7414 4.11591C27.7414 4.43646 27.4841 4.6965 27.167 4.6965C26.8499 4.6965 26.5926 4.43646 26.5926 4.11591C26.5926 3.64678 26.1795 3.54855 25.8325 3.54855C25.599 3.54855 25.0564 3.60395 25.0564 4.11591C25.0564 4.41315 25.0825 4.45909 25.8674 4.85205L26.3048 5.07121C27.0854 5.45974 27.7601 5.79539 27.7601 6.84827C27.7601 7.86025 26.967 8.56744 25.8325 8.56744Z" fill="#F9A826"/>
<path d="M25.8076 3.51073C25.4906 3.51073 25.2333 3.25067 25.2333 2.93014V2.29286C25.2333 1.97233 25.4906 1.71289 25.8076 1.71289C26.1248 1.71289 26.382 1.97233 26.382 2.29286V2.93014C26.382 3.25067 26.1248 3.51073 25.8076 3.51073Z" fill="#F9A826"/>
<path d="M25.8076 9.25145C25.4906 9.25145 25.2333 8.99139 25.2333 8.67087V8.0336C25.2333 7.71308 25.4906 7.45361 25.8076 7.45361C26.1248 7.45361 26.382 7.71308 26.382 8.0336V8.67087C26.382 8.99139 26.1248 9.25145 25.8076 9.25145Z" fill="#F9A826"/>
</svg>
